<svg id="visual" viewBox="0 0 960 540" width="960" height="540" xmlns="http://www.w3.org/2000/svg" xmlns:xlink="http://www.w3.org/1999/xlink" version="1.1"><rect x="0" y="0" width="960" height="540" fill="#fcfbfa"></rect><path d="M0 454L13.3 450.3C26.7 446.7 53.3 439.3 80 408.7C106.7 378 133.3 324 160 312.7C186.7 301.3 213.3 332.7 240 343.8C266.7 355 293.3 346 320 335.8C346.7 325.7 373.3 314.3 400 299.3C426.7 284.3 453.3 265.7 480 275.8C506.7 286 533.3 325 560 348.8C586.7 372.7 613.3 381.3 640 393.7C666.7 406 693.3 422 720 406.5C746.7 391 773.3 344 800 337.7C826.7 331.3 853.3 365.7 880 386.5C906.7 407.3 933.3 414.7 946.7 418.3L960 422L960 541L946.7 541C933.3 541 906.7 541 880 541C853.3 541 826.7 541 800 541C773.3 541 746.7 541 720 541C693.3 541 666.7 541 640 541C613.3 541 586.7 541 560 541C533.3 541 506.7 541 480 541C453.3 541 426.7 541 400 541C373.3 541 346.7 541 320 541C293.3 541 266.7 541 240 541C213.3 541 186.7 541 160 541C133.3 541 106.7 541 80 541C53.3 541 26.7 541 13.3 541L0 541Z" fill="#97c680" stroke-linecap="round" stroke-linejoin="miter"></path></svg>